<svg width="30" height="35" viewBox="0 0 30 35" fill="none" xmlns="http://www.w3.org/2000/svg">
<path d="M14.7543 0L29.5085 8.51837V25.5551L14.7543 34.0735L0 25.5551V8.51837L14.7543 0Z" fill="#1C2729"/>
<path fill-rule="evenodd" clip-rule="evenodd" d="M29.5085 8.51837L14.7543 0L0 8.51837V18.3695L14.7535 9.85156L29.5078 18.3699V25.5555L29.5085 25.5551V8.51837Z" fill="#A09E96"/>
<path fill-rule="evenodd" clip-rule="evenodd" d="M14.7097 34.0719L0 25.5793V15.7277L14.7097 24.2203V34.0719Z" fill="#1C2729"/>
<path d="M2.23828 17.0368L7.02845 19.7934L14.756 15.2744L22.4384 19.7934L27.2285 17.0368L14.756 9.85156L2.23828 17.0368Z" fill="#FBF9ED"/>
<path d="M11.2734 14.1899H18.1424V22.2338L14.7079 24.2222L11.2734 22.2338V14.1899Z" fill="#FBF9ED"/>
</svg>
